<svg xmlns="http://www.w3.org/2000/svg" width="460" height="800" viewBox="0 0 460 800">
  <metadata><?xpacket begin="﻿" id="W5M0MpCehiHzreSzNTczkc9d"?>
<x:xmpmeta xmlns:x="adobe:ns:meta/" x:xmptk="Adobe XMP Core 5.6-c138 79.159824, 2016/09/14-01:09:01        ">
   <rdf:RDF xmlns:rdf="http://www.w3.org/1999/02/22-rdf-syntax-ns#">
      <rdf:Description rdf:about=""/>
   </rdf:RDF>
</x:xmpmeta>
                                                                                                    
                                                                                                    
                                                                                                    
                                                                                                    
                                                                                                    
                                                                                                    
                                                                                                    
                                                                                                    
                                                                                                    
                                                                                                    
                                                                                                    
                                                                                                    
                                                                                                    
                                                                                                    
                                                                                                    
                                                                                                    
                                                                                                    
                                                                                                    
                                                                                                    
                                                                                                    
                           
<?xpacket end="w"?></metadata>
<defs>
    <style>
      .cls-1 {
        fill: #4238f8;
        fill-rule: evenodd;
      }
    </style>
  </defs>
  <path id="Эллипс_1" data-name="Эллипс 1" class="cls-1" d="M404,5961c-5.248,45.13-17,78-17,78l73-39s-5.942,13.06-13,31c-8.062,20.49-18.132,47.53-32,72-26.973,47.58-61,84-61,84l82-2s-10.747,9.24-26,23c-16.047,14.47-37.177,33.88-60,50-43.979,31.06-91,52-91,52l76,34s-14.825,5.61-39,12c-19.738,5.22-42.495,11.88-66,16a723.3,723.3,0,0,1-102,10l24,24-154-1,0.507-197.86A145.815,145.815,0,0,0,29.5,6208c95.338-7.46,162.5-75.28,162.5-170s-72.133-171.13-162.5-173a165.485,165.485,0,0,0-30.123,2.13L0,5624v-12s41.545,17.1,78,38a413.951,413.951,0,0,1,61,43l-14-87a304.686,304.686,0,0,1,31,25c14.988,13.59,33.048,32.77,50,51,35.994,38.71,64,86,64,86l20-69s7.965,14.07,19,34c9.044,16.33,20.557,36.34,28,58,16.969,49.39,20,103,20,103l55-70s-0.965,17.62-2,43C408.9,5894.08,407.612,5929.94,404,5961Z" transform="translate(0 -5606)"/>
</svg>
